<svg width="147" height="29" viewBox="0 0 147 29" fill="none" xmlns="http://www.w3.org/2000/svg">
    <g clip-path="url(#s24a75wz7a)" fill="#fff">
        <path d="m3.109 25.293 1.15 2.863 1.15-2.863h.598v3.504h-.465v-1.36l.044-1.476-1.151 2.836h-.351l-1.15-2.836.043 1.466v1.362h-.465v-3.505h.597v.01zM11.434 27.181H9.915v1.247h1.765v.378H9.45v-3.504h2.204v.378H9.915v1.133h1.52v.377-.009zM15.483 25.293l1.15 2.863 1.151-2.863h.597v3.504h-.465v-1.36l.044-1.476-1.15 2.836h-.352l-1.15-2.836.043 1.466v1.362h-.465v-3.505h.597v.01zM24.52 27.155c0 .342-.061.641-.175.896a1.356 1.356 0 0 1-.492.588c-.21.132-.457.202-.738.202-.28 0-.518-.07-.738-.202-.22-.131-.377-.325-.5-.58a2.256 2.256 0 0 1-.185-.869v-.255c0-.333.062-.632.176-.895.114-.255.281-.457.5-.598.211-.14.457-.201.738-.201.281 0 .527.07.747.201.21.132.377.334.492.589.114.255.175.553.175.896v.228zm-.465-.22c0-.412-.088-.737-.255-.957a.838.838 0 0 0-.702-.334.833.833 0 0 0-.694.334c-.167.22-.255.527-.255.922v.255c0 .404.088.72.255.948a.823.823 0 0 0 .702.343c.299 0 .527-.105.694-.325.167-.22.246-.527.255-.94v-.263.018zM29.122 27.383h-.825v1.423h-.466v-3.504h1.16c.395 0 .702.088.913.272.21.176.316.44.316.782 0 .22-.061.413-.176.57a1.045 1.045 0 0 1-.491.36l.825 1.485v.026h-.492l-.764-1.422v.008zm-.817-.377h.712c.228 0 .413-.062.544-.176a.623.623 0 0 0 .202-.474c0-.22-.061-.387-.193-.5-.131-.115-.316-.176-.562-.176h-.711v1.335l.008-.01zM34.462 27.05l.913-1.757h.527L34.69 27.49v1.308h-.465V27.49l-1.212-2.196h.527l.913 1.757h.009zM38.414 28.569c0-.08.026-.14.07-.193.044-.053.114-.08.202-.08.088 0 .158.027.211.08a.29.29 0 0 1 .07.193.267.267 0 0 1-.07.184c-.044.053-.114.07-.21.07-.097 0-.159-.026-.203-.07a.267.267 0 0 1-.07-.184zM47.636 27.252H46.16v1.545h-.465v-3.504h2.169v.378H46.15v1.203h1.476v.378h.008zM53.748 27.155c0 .342-.062.641-.176.896a1.357 1.357 0 0 1-.492.588c-.21.132-.456.202-.737.202-.281 0-.519-.07-.738-.202-.22-.131-.378-.325-.5-.58a2.256 2.256 0 0 1-.185-.869v-.255c0-.333.061-.632.176-.895.114-.255.28-.457.5-.598.21-.14.457-.201.738-.201.28 0 .527.07.746.201.211.132.378.334.492.589.114.255.176.553.176.896v.228zm-.457-.22c0-.412-.088-.737-.255-.957a.839.839 0 0 0-.702-.334.833.833 0 0 0-.694.334c-.167.22-.255.527-.255.922v.255c0 .404.088.72.255.948a.823.823 0 0 0 .703.343c.298 0 .527-.105.693-.325.167-.22.246-.527.255-.94v-.263.018zM59.65 27.682c-.044.369-.185.659-.413.86-.229.203-.536.3-.922.3-.413 0-.747-.15-.993-.449-.246-.298-.377-.694-.377-1.194v-.334c0-.325.061-.615.175-.86.114-.246.281-.44.492-.571.21-.132.457-.202.738-.202.369 0 .667.105.896.316.228.21.35.492.395.86h-.466c-.044-.28-.123-.483-.263-.606-.132-.122-.325-.184-.562-.184-.299 0-.527.106-.694.325-.167.22-.255.527-.255.931v.343c0 .377.08.684.237.904.159.228.378.334.668.334.255 0 .457-.062.588-.176.132-.114.229-.316.273-.606h.465l.018.009zM65.385 25.293v2.389c0 .334-.106.597-.308.808-.202.21-.483.325-.843.351h-.123c-.386 0-.694-.096-.913-.307-.22-.21-.343-.492-.352-.852v-2.389h.457v2.371c0 .255.07.448.21.589.141.14.343.21.598.21.255 0 .466-.07.597-.21.132-.14.211-.334.211-.589v-2.38h.466v.01zM69.776 27.234c-.395-.114-.685-.255-.87-.422a.788.788 0 0 1-.272-.614c0-.273.114-.5.334-.685.22-.185.51-.273.86-.273.237 0 .457.044.641.141.185.097.334.22.44.386a.978.978 0 0 1 .158.536H70.6c0-.21-.07-.378-.202-.5-.132-.123-.325-.185-.57-.185-.229 0-.405.053-.536.15-.132.096-.194.236-.194.421 0 .14.062.263.185.36.123.097.325.193.623.272.29.08.519.176.685.273a1 1 0 0 1 .37.342c.078.132.122.29.122.465a.84.84 0 0 1-.334.686c-.22.166-.518.254-.886.254a1.61 1.61 0 0 1-.677-.14 1.18 1.18 0 0 1-.483-.378.908.908 0 0 1-.167-.544h.466a.6.6 0 0 0 .237.5c.158.123.369.185.624.185.245 0 .43-.053.562-.15a.476.476 0 0 0 .193-.404.464.464 0 0 0-.185-.395c-.123-.096-.342-.184-.658-.28zM74.237 28.569c0-.08.026-.14.07-.193.044-.053.114-.08.202-.08.088 0 .158.027.211.08a.29.29 0 0 1 0 .377c-.044.053-.114.07-.21.07-.097 0-.159-.026-.203-.07a.267.267 0 0 1-.07-.184zM81.983 27.427v1.37h-.465v-3.504h1.29c.387 0 .686.097.905.29.22.193.325.457.325.782 0 .342-.105.606-.316.79-.21.184-.518.272-.913.272h-.826zm0-.377h.834c.246 0 .44-.062.571-.176.132-.114.193-.281.193-.51 0-.21-.061-.377-.193-.5a.775.775 0 0 0-.544-.193h-.861v1.379zM89.246 27.181h-1.52v1.247h1.766v.378h-2.23v-3.504h2.204v.378h-1.74v1.133h1.52v.377-.009zM93.98 27.383h-.826v1.423h-.465v-3.504h1.159c.395 0 .703.088.913.272.211.176.317.44.317.782 0 .22-.062.413-.176.57a1.046 1.046 0 0 1-.492.36l.826 1.485v.026h-.492l-.764-1.422v.008zm-.817-.377h.711c.229 0 .413-.062.545-.176a.623.623 0 0 0 .202-.474c0-.22-.062-.387-.193-.5-.132-.115-.316-.176-.562-.176h-.712v1.335l.009-.01zM100.294 27.252h-1.475v1.545h-.466v-3.504h2.17v.378H98.81v1.203h1.476v.378h.008zM106.416 27.155c0 .342-.062.641-.176.896a1.355 1.355 0 0 1-.492.588 1.366 1.366 0 0 1-.738.202c-.281 0-.518-.07-.737-.202-.22-.131-.378-.325-.501-.58a2.245 2.245 0 0 1-.184-.869v-.255c0-.333.061-.632.175-.895.114-.255.281-.457.501-.598.211-.14.457-.201.738-.201.281 0 .527.07.746.201.211.132.378.334.492.589.114.255.176.553.176.896v.228zm-.457-.22c0-.412-.088-.737-.255-.957a.838.838 0 0 0-.702-.334.832.832 0 0 0-.694.334c-.167.22-.255.527-.255.922v.255c0 .404.088.72.255.948a.823.823 0 0 0 .702.343c.299 0 .527-.105.694-.325.167-.22.246-.527.255-.94v-.263.018zM111.026 27.383h-.825v1.423h-.466v-3.504h1.16c.395 0 .702.088.913.272.211.176.316.44.316.782 0 .22-.061.413-.175.57a1.054 1.054 0 0 1-.492.36l.825 1.485v.026h-.492l-.764-1.422v.008zm-.825-.377h.711c.229 0 .413-.062.545-.176a.626.626 0 0 0 .202-.474c0-.22-.062-.387-.194-.5-.131-.115-.316-.176-.562-.176h-.711v1.335l.009-.01zM116.006 25.293l1.15 2.863 1.151-2.863h.597v3.504h-.465v-1.36l.044-1.476-1.151 2.836h-.351l-1.151-2.836.044 1.466v1.362h-.465v-3.505h.597v.01zM124.279 27.884h-1.467l-.333.913h-.475l1.335-3.504h.404l1.344 3.504h-.474l-.334-.913zm-1.335-.378h1.195l-.598-1.642-.597 1.642zM130.883 28.797h-.465l-1.766-2.705v2.705h-.465v-3.504h.465l1.775 2.714v-2.714h.456v3.504zM136.908 27.682c-.044.369-.185.659-.413.86-.228.203-.536.3-.922.3-.413 0-.747-.15-.992-.449-.246-.298-.378-.694-.378-1.194v-.334c0-.325.061-.615.176-.86a1.31 1.31 0 0 1 .491-.571c.211-.132.457-.202.738-.202.369 0 .668.105.896.316.228.21.351.492.395.86h-.465c-.044-.28-.123-.483-.264-.606-.132-.122-.325-.184-.562-.184-.299 0-.527.106-.694.325-.167.22-.254.527-.254.931v.343c0 .377.079.684.237.904.158.228.377.334.667.334.255 0 .457-.062.589-.176.131-.114.228-.316.272-.606h.465l.018.009zM142.151 27.181h-1.519v1.247h1.765v.378h-2.231v-3.504h2.205v.378h-1.739v1.133h1.519v.377-.009zM145.541 28.569c0-.08.026-.14.07-.193.044-.053.114-.08.202-.08.088 0 .158.027.211.08.044.052.07.114.07.193a.266.266 0 0 1-.07.184c-.044.053-.114.07-.211.07-.096 0-.158-.026-.202-.07a.266.266 0 0 1-.07-.184z"/>
        <path d="m3.109 25.293 1.15 2.863 1.15-2.863h.598v3.504h-.465v-1.36l.044-1.476-1.151 2.836h-.351l-1.15-2.836.043 1.466v1.362h-.465v-3.505h.597v.01zM11.434 27.181H9.915v1.247h1.765v.378H9.45v-3.504h2.204v.378H9.915v1.133h1.52v.377-.009zM15.483 25.293l1.15 2.863 1.151-2.863h.597v3.504h-.465v-1.36l.044-1.476-1.15 2.836h-.352l-1.15-2.836.043 1.466v1.362h-.465v-3.505h.597v.01zM24.52 27.155c0 .342-.061.641-.175.896a1.356 1.356 0 0 1-.492.588c-.21.132-.457.202-.738.202-.28 0-.518-.07-.738-.202-.22-.131-.377-.325-.5-.58a2.256 2.256 0 0 1-.185-.869v-.255c0-.333.062-.632.176-.895.114-.255.281-.457.5-.598.211-.14.457-.201.738-.201.281 0 .527.07.747.201.21.132.377.334.492.589.114.255.175.553.175.896v.228zm-.465-.22c0-.412-.088-.737-.255-.957a.838.838 0 0 0-.702-.334.833.833 0 0 0-.694.334c-.167.22-.255.527-.255.922v.255c0 .404.088.72.255.948a.823.823 0 0 0 .702.343c.299 0 .527-.105.694-.325.167-.22.246-.527.255-.94v-.263.018zM29.122 27.383h-.825v1.423h-.466v-3.504h1.16c.395 0 .702.088.913.272.21.176.316.44.316.782 0 .22-.061.413-.176.57a1.045 1.045 0 0 1-.491.36l.825 1.485v.026h-.492l-.764-1.422v.008zm-.817-.377h.712c.228 0 .413-.062.544-.176a.623.623 0 0 0 .202-.474c0-.22-.061-.387-.193-.5-.131-.115-.316-.176-.562-.176h-.711v1.335l.008-.01zM34.462 27.05l.913-1.757h.527L34.69 27.49v1.308h-.465V27.49l-1.212-2.196h.527l.913 1.757h.009zM38.414 28.569c0-.08.026-.14.07-.193.044-.053.114-.08.202-.08.088 0 .158.027.211.08a.29.29 0 0 1 .07.193.267.267 0 0 1-.07.184c-.044.053-.114.07-.21.07-.097 0-.159-.026-.203-.07a.267.267 0 0 1-.07-.184zM47.636 27.252H46.16v1.545h-.465v-3.504h2.169v.378H46.15v1.203h1.476v.378h.008zM53.748 27.155c0 .342-.062.641-.176.896a1.357 1.357 0 0 1-.492.588c-.21.132-.456.202-.737.202-.281 0-.519-.07-.738-.202-.22-.131-.378-.325-.5-.58a2.256 2.256 0 0 1-.185-.869v-.255c0-.333.061-.632.176-.895.114-.255.28-.457.5-.598.21-.14.457-.201.738-.201.28 0 .527.07.746.201.211.132.378.334.492.589.114.255.176.553.176.896v.228zm-.457-.22c0-.412-.088-.737-.255-.957a.839.839 0 0 0-.702-.334.833.833 0 0 0-.694.334c-.167.22-.255.527-.255.922v.255c0 .404.088.72.255.948a.823.823 0 0 0 .703.343c.298 0 .527-.105.693-.325.167-.22.246-.527.255-.94v-.263.018zM59.65 27.682c-.044.369-.185.659-.413.86-.229.203-.536.3-.922.3-.413 0-.747-.15-.993-.449-.246-.298-.377-.694-.377-1.194v-.334c0-.325.061-.615.175-.86.114-.246.281-.44.492-.571.21-.132.457-.202.738-.202.369 0 .667.105.896.316.228.21.35.492.395.86h-.466c-.044-.28-.123-.483-.263-.606-.132-.122-.325-.184-.562-.184-.299 0-.527.106-.694.325-.167.22-.255.527-.255.931v.343c0 .377.08.684.237.904.159.228.378.334.668.334.255 0 .457-.062.588-.176.132-.114.229-.316.273-.606h.465l.018.009zM65.385 25.293v2.389c0 .334-.106.597-.308.808-.202.21-.483.325-.843.351h-.123c-.386 0-.694-.096-.913-.307-.22-.21-.343-.492-.352-.852v-2.389h.457v2.371c0 .255.07.448.21.589.141.14.343.21.598.21.255 0 .466-.07.597-.21.132-.14.211-.334.211-.589v-2.38h.466v.01zM69.776 27.234c-.395-.114-.685-.255-.87-.422a.788.788 0 0 1-.272-.614c0-.273.114-.5.334-.685.22-.185.51-.273.86-.273.237 0 .457.044.641.141.185.097.334.22.44.386a.978.978 0 0 1 .158.536H70.6c0-.21-.07-.378-.202-.5-.132-.123-.325-.185-.57-.185-.229 0-.405.053-.536.15-.132.096-.194.236-.194.421 0 .14.062.263.185.36.123.097.325.193.623.272.29.08.519.176.685.273a1 1 0 0 1 .37.342c.078.132.122.29.122.465a.84.84 0 0 1-.334.686c-.22.166-.518.254-.886.254a1.61 1.61 0 0 1-.677-.14 1.18 1.18 0 0 1-.483-.378.908.908 0 0 1-.167-.544h.466a.6.6 0 0 0 .237.5c.158.123.369.185.624.185.245 0 .43-.053.562-.15a.476.476 0 0 0 .193-.404.464.464 0 0 0-.185-.395c-.123-.096-.342-.184-.658-.28zM74.237 28.569c0-.08.026-.14.07-.193.044-.053.114-.08.202-.08.088 0 .158.027.211.08a.29.29 0 0 1 0 .377c-.044.053-.114.07-.21.07-.097 0-.159-.026-.203-.07a.267.267 0 0 1-.07-.184zM81.983 27.427v1.37h-.465v-3.504h1.29c.387 0 .686.097.905.29.22.193.325.457.325.782 0 .342-.105.606-.316.79-.21.184-.518.272-.913.272h-.826zm0-.377h.834c.246 0 .44-.062.571-.176.132-.114.193-.281.193-.51 0-.21-.061-.377-.193-.5a.775.775 0 0 0-.544-.193h-.861v1.379zM89.246 27.181h-1.52v1.247h1.766v.378h-2.23v-3.504h2.204v.378h-1.74v1.133h1.52v.377-.009zM93.98 27.383h-.826v1.423h-.465v-3.504h1.159c.395 0 .703.088.913.272.211.176.317.44.317.782 0 .22-.062.413-.176.57a1.046 1.046 0 0 1-.492.36l.826 1.485v.026h-.492l-.764-1.422v.008zm-.817-.377h.711c.229 0 .413-.062.545-.176a.623.623 0 0 0 .202-.474c0-.22-.062-.387-.193-.5-.132-.115-.316-.176-.562-.176h-.712v1.335l.009-.01zM100.294 27.252h-1.475v1.545h-.466v-3.504h2.17v.378H98.81v1.203h1.476v.378h.008zM106.416 27.155c0 .342-.062.641-.176.896a1.355 1.355 0 0 1-.492.588 1.366 1.366 0 0 1-.738.202c-.281 0-.518-.07-.737-.202-.22-.131-.378-.325-.501-.58a2.245 2.245 0 0 1-.184-.869v-.255c0-.333.061-.632.175-.895.114-.255.281-.457.501-.598.211-.14.457-.201.738-.201.281 0 .527.07.746.201.211.132.378.334.492.589.114.255.176.553.176.896v.228zm-.457-.22c0-.412-.088-.737-.255-.957a.838.838 0 0 0-.702-.334.832.832 0 0 0-.694.334c-.167.22-.255.527-.255.922v.255c0 .404.088.72.255.948a.823.823 0 0 0 .702.343c.299 0 .527-.105.694-.325.167-.22.246-.527.255-.94v-.263.018zM111.026 27.383h-.825v1.423h-.466v-3.504h1.16c.395 0 .702.088.913.272.211.176.316.44.316.782 0 .22-.061.413-.175.57a1.054 1.054 0 0 1-.492.36l.825 1.485v.026h-.492l-.764-1.422v.008zm-.825-.377h.711c.229 0 .413-.062.545-.176a.626.626 0 0 0 .202-.474c0-.22-.062-.387-.194-.5-.131-.115-.316-.176-.562-.176h-.711v1.335l.009-.01zM116.006 25.293l1.15 2.863 1.151-2.863h.597v3.504h-.465v-1.36l.044-1.476-1.151 2.836h-.351l-1.151-2.836.044 1.466v1.362h-.465v-3.505h.597v.01zM124.279 27.884h-1.467l-.333.913h-.475l1.335-3.504h.404l1.344 3.504h-.474l-.334-.913zm-1.335-.378h1.195l-.598-1.642-.597 1.642zM130.883 28.797h-.465l-1.766-2.705v2.705h-.465v-3.504h.465l1.775 2.714v-2.714h.456v3.504zM136.908 27.682c-.044.369-.185.659-.413.86-.228.203-.536.3-.922.3-.413 0-.747-.15-.992-.449-.246-.298-.378-.694-.378-1.194v-.334c0-.325.061-.615.176-.86a1.31 1.31 0 0 1 .491-.571c.211-.132.457-.202.738-.202.369 0 .668.105.896.316.228.21.351.492.395.86h-.465c-.044-.28-.123-.483-.264-.606-.132-.122-.325-.184-.562-.184-.299 0-.527.106-.694.325-.167.22-.254.527-.254.931v.343c0 .377.079.684.237.904.158.228.377.334.667.334.255 0 .457-.062.589-.176.131-.114.228-.316.272-.606h.465l.018.009zM142.151 27.181h-1.519v1.247h1.765v.378h-2.231v-3.504h2.205v.378h-1.739v1.133h1.519v.377-.009zM145.541 28.569c0-.08.026-.14.07-.193.044-.053.114-.08.202-.08.088 0 .158.027.211.08.044.052.07.114.07.193a.266.266 0 0 1-.07.184c-.044.053-.114.07-.211.07-.096 0-.158-.026-.202-.07a.266.266 0 0 1-.07-.184zM12.559 12.462 14.56 1.88h3.056l-3.302 14.878h-3.082l-2.424-9.95-2.424 9.95H3.302L0 1.879h3.056l2.011 10.566 2.45-10.566h2.591l2.442 10.583h.009zM23.115 16.959c-1.624 0-2.942-.5-3.96-1.493-1.02-.993-1.529-2.319-1.529-3.979v-.29c0-1.106.211-2.098.641-2.977.43-.878 1.037-1.545 1.827-2.02.79-.474 1.686-.711 2.696-.711 1.51 0 2.705.474 3.575 1.432.87.957 1.3 2.31 1.3 4.057v1.203H20.62c.097.72.386 1.3.86 1.74.484.438 1.09.649 1.827.649 1.133 0 2.03-.413 2.67-1.238l1.45 1.624c-.44.624-1.046 1.116-1.801 1.467-.755.351-1.59.527-2.512.527v.009zm-.333-9.081c-.589 0-1.063.202-1.423.597-.37.395-.598.966-.703 1.704h4.11v-.237c-.017-.659-.193-1.168-.527-1.528-.342-.36-.825-.536-1.449-.536h-.008zM38.669 11.33c0 1.773-.378 3.152-1.133 4.145-.756.992-1.81 1.484-3.17 1.484-1.195 0-2.152-.457-2.872-1.379l-.132 1.177H28.71V1.063h2.95v5.63c.685-.8 1.572-1.195 2.688-1.195 1.352 0 2.406.492 3.17 1.484.764.992 1.15 2.389 1.15 4.18v.167zm-2.951-.22c0-1.116-.176-1.932-.527-2.45-.351-.519-.878-.773-1.581-.773-.94 0-1.59.386-1.94 1.15v4.365c.36.773 1.018 1.168 1.958 1.168s1.58-.474 1.879-1.414c.14-.448.21-1.133.21-2.055v.009zM44.948 16.959c-1.625 0-2.942-.5-3.96-1.493-1.02-.993-1.529-2.319-1.529-3.979v-.29c0-1.106.21-2.098.641-2.977.43-.878 1.036-1.545 1.827-2.02.79-.474 1.686-.711 2.696-.711 1.51 0 2.705.474 3.574 1.432.87.957 1.3 2.31 1.3 4.057v1.203h-7.043c.096.72.386 1.3.86 1.74.483.438 1.09.649 1.827.649 1.133 0 2.029-.413 2.67-1.238l1.45 1.624c-.44.624-1.046 1.116-1.801 1.467-.756.351-1.59.527-2.512.527v.009zm-.334-9.081c-.588 0-1.062.202-1.422.597-.37.395-.598.966-.703 1.704h4.11v-.237c-.017-.659-.193-1.168-.527-1.528-.342-.36-.825-.536-1.449-.536h-.009zM56.752 8.466a8.307 8.307 0 0 0-1.063-.079c-1.115 0-1.853.378-2.196 1.133v7.237h-2.95V5.7h2.792l.08 1.317c.588-1.019 1.413-1.52 2.458-1.52.325 0 .633.045.922.133l-.043 2.836zM57.744 16.757V1.879h5.208c1.8 0 3.17.343 4.11 1.037.94.694 1.396 1.703 1.396 3.038 0 .73-.184 1.37-.562 1.924a3.247 3.247 0 0 1-1.563 1.22c.764.194 1.361.58 1.8 1.151.44.58.66 1.291.66 2.125 0 1.432-.458 2.512-1.371 3.25-.913.737-2.213 1.106-3.9 1.124h-5.778v.009zm3.065-8.65h2.266c1.546-.027 2.318-.642 2.318-1.854 0-.676-.193-1.16-.588-1.458-.395-.298-1.01-.448-1.853-.448h-2.143v3.76zm0 2.168v4.014h2.626c.72 0 1.282-.176 1.695-.518.404-.343.606-.817.606-1.423 0-1.361-.703-2.055-2.117-2.073h-2.81zM76.486 8.466a8.307 8.307 0 0 0-1.063-.079c-1.115 0-1.853.378-2.196 1.133v7.237h-2.95V5.7h2.792l.08 1.317c.588-1.019 1.413-1.52 2.458-1.52.325 0 .633.045.922.133l-.043 2.836zM83.38 16.757c-.141-.264-.238-.597-.3-.993-.71.8-1.641 1.195-2.792 1.195-1.08 0-1.976-.316-2.687-.94-.712-.623-1.072-1.414-1.072-2.371 0-1.168.43-2.073 1.3-2.696.87-.624 2.125-.94 3.768-.949h1.361v-.632c0-.51-.132-.922-.395-1.23-.264-.307-.677-.456-1.239-.456-.5 0-.887.123-1.168.36-.28.237-.421.562-.421.983h-2.951c0-.64.193-1.23.588-1.774.396-.544.958-.975 1.678-1.282.72-.307 1.528-.465 2.433-.465 1.36 0 2.441.342 3.24 1.027.8.685 1.203 1.651 1.203 2.89v4.795c0 1.045.15 1.844.44 2.38v.175h-2.987v-.017zm-2.442-2.055c.44 0 .834-.097 1.203-.29.37-.193.641-.457.817-.782v-1.897h-1.107c-1.475 0-2.265.51-2.362 1.528v.176c-.009.369.123.668.378.913.254.238.614.36 1.062.36l.009-.008zM87.543 2.837c0-.44.149-.808.447-1.09.299-.28.703-.43 1.212-.43.51 0 .905.14 1.204.43.298.29.447.65.447 1.09 0 .439-.149.816-.456 1.106-.308.29-.703.43-1.203.43-.501 0-.896-.14-1.204-.43-.307-.29-.456-.65-.456-1.106h.008zm3.135 13.92h-2.96V5.7h2.96v11.057zM95.2 5.7l.088 1.273c.79-.983 1.853-1.484 3.18-1.484 1.168 0 2.046.343 2.617 1.036.571.685.86 1.713.878 3.083v7.14h-2.951v-7.07c0-.623-.14-1.08-.413-1.361-.272-.281-.729-.422-1.361-.422-.834 0-1.458.352-1.87 1.063v7.799h-2.951V5.7H95.2zM102.683 2.16c0-.386.088-.746.272-1.08.176-.334.431-.597.747-.79.316-.193.659-.29 1.036-.29.378 0 .712.097 1.036.29.317.193.571.456.747.79.184.334.272.694.272 1.08 0 .387-.088.756-.272 1.09-.184.333-.43.597-.747.79-.316.193-.658.29-1.027.29-.369 0-.72-.097-1.036-.29a2.085 2.085 0 0 1-.747-.79 2.207 2.207 0 0 1-.272-1.09h-.009zm3.75 0c0-.316-.07-.614-.219-.895a1.71 1.71 0 0 0-.615-.659 1.59 1.59 0 0 0-.87-.246c-.316 0-.588.08-.851.237a1.769 1.769 0 0 0-.624.65c-.149.281-.228.58-.228.905 0 .325.07.632.219.904.149.273.351.5.615.659a1.633 1.633 0 0 0 1.721 0c.264-.167.475-.386.615-.659.149-.28.22-.58.22-.896h.017zm-2.116.22v.975h-.439V.895h.807c.29 0 .519.062.686.203.166.132.254.316.254.562 0 .22-.105.386-.325.5.114.062.202.141.246.246.044.106.07.237.07.396 0 .158 0 .272.009.333a.48.48 0 0 0 .035.167v.044h-.448c-.026-.061-.035-.255-.035-.562 0-.15-.035-.255-.096-.316-.062-.062-.167-.097-.316-.097h-.457l.009.009zm0-.386h.395c.14 0 .263-.027.351-.097.088-.061.141-.14.141-.246 0-.132-.035-.228-.106-.29-.07-.052-.193-.088-.369-.088h-.404v.712l-.008.009zM122.365 1.265V2.38h-.15c-1.862 0-3.328.545-4.4 1.642-1.071 1.098-1.66 2.617-1.774 4.576a4.439 4.439 0 0 1 1.634-1.379c.667-.325 1.405-.483 2.23-.483 1.371 0 2.46.474 3.268 1.414.807.948 1.211 2.178 1.211 3.706 0 1.01-.193 1.924-.57 2.74-.378.817-.923 1.45-1.625 1.897-.703.457-1.511.677-2.415.677-1.493 0-2.705-.545-3.636-1.625s-1.405-2.477-1.405-4.19v-1.282c0-2.792.632-4.953 1.905-6.481 1.274-1.528 3.074-2.31 5.402-2.336h.325v.009zm-2.67 6.578c-.817 0-1.572.237-2.275.72-.703.483-1.168 1.089-1.405 1.835v1.09c0 1.352.351 2.458 1.045 3.31.694.852 1.598 1.283 2.714 1.283 1.001 0 1.809-.396 2.424-1.186.614-.79.922-1.792.922-2.995s-.308-2.213-.922-2.95c-.615-.739-1.449-1.116-2.503-1.116v.009zM135.459 2.116l-6.657 14.843h-1.335l6.613-14.491h-8.861v-1.09h10.24v.738zM146.095 5.392c0 .808-.238 1.528-.703 2.17-.466.64-1.089 1.106-1.862 1.405.896.307 1.616.799 2.161 1.484.544.685.816 1.475.816 2.38 0 1.335-.456 2.389-1.361 3.17-.905.782-2.108 1.168-3.592 1.168s-2.714-.386-3.609-1.168c-.905-.781-1.353-1.835-1.353-3.179 0-.887.264-1.677.782-2.362.518-.694 1.238-1.195 2.143-1.502a4.008 4.008 0 0 1-1.845-1.405 3.628 3.628 0 0 1-.685-2.17c0-1.29.413-2.318 1.247-3.082.835-.764 1.932-1.142 3.303-1.142 1.37 0 2.476.387 3.31 1.16.835.772 1.256 1.791 1.256 3.073h-.008zm-.879 7.448c0-.966-.342-1.766-1.036-2.39-.694-.623-1.581-.939-2.652-.939-1.072 0-1.959.308-2.644.922-.685.615-1.027 1.414-1.027 2.407 0 .992.333 1.783.992 2.37.668.59 1.563.888 2.696.888 1.133 0 1.994-.29 2.661-.878.668-.589 1.01-1.38 1.01-2.38zm-.412-7.457c0-.895-.308-1.633-.923-2.23-.614-.597-1.405-.896-2.362-.896-.957 0-1.757.29-2.363.86-.605.571-.904 1.327-.904 2.266 0 .94.299 1.652.904 2.205.606.553 1.397.834 2.372.834.975 0 1.747-.28 2.362-.843.606-.562.914-1.29.914-2.196z"/>
    </g>
    <defs>
        <clipPath id="s24a75wz7a">
            <path fill="#fff" d="M0 0h146.498v28.85H0z"/>
        </clipPath>
    </defs>
</svg>
