<svg width="265" height="52" viewBox="0 0 265 52" fill="none" xmlns="http://www.w3.org/2000/svg">
<path d="M5.61583 45.589L7.69694 50.7495L9.77805 45.589H10.8583V51.905H10.0163V49.4514L10.0958 46.7921L8.01467 51.905H7.37921L5.2981 46.7921L5.37753 49.4356V51.8892H4.53556V45.5732H5.61583V45.589Z" fill="white"/>
<path d="M20.6761 48.9924H17.9277V51.2402H21.1209V51.9209H17.0858V45.6049H21.0732V46.2855H17.9277V48.3276H20.6761V49.0082V48.9924Z" fill="white"/>
<path d="M27.9997 45.589L30.0808 50.7495L32.1619 45.589H33.2422V51.905H32.4002V49.4514L32.4796 46.7921L30.3985 51.905H29.7631L27.682 46.7921L27.7614 49.4356V51.8892H26.9194V45.5732H27.9997V45.589Z" fill="white"/>
<path d="M44.3467 48.9449C44.3467 49.5623 44.2355 50.1005 44.029 50.5595C43.8225 51.0186 43.5206 51.3668 43.1394 51.6201C42.7581 51.8575 42.3133 51.9842 41.8049 51.9842C41.2965 51.9842 40.8676 51.8575 40.4705 51.6201C40.0733 51.3827 39.7873 51.0344 39.5649 50.5753C39.3584 50.1163 39.2472 49.5939 39.2313 49.0082V48.5492C39.2313 47.9476 39.3425 47.4094 39.549 46.9346C39.7556 46.4755 40.0574 46.1114 40.4546 45.8581C40.8358 45.6049 41.2807 45.4941 41.789 45.4941C42.2974 45.4941 42.7422 45.6207 43.1394 45.8581C43.5206 46.0956 43.8225 46.4597 44.029 46.9187C44.2355 47.3778 44.3467 47.916 44.3467 48.5333V48.9449ZM43.5047 48.5492C43.5047 47.8052 43.3459 47.2195 43.044 46.8237C42.7422 46.428 42.3133 46.2222 41.7731 46.2222C41.233 46.2222 40.8358 46.428 40.5181 46.8237C40.2163 47.2195 40.0574 47.7735 40.0574 48.4858V48.9449C40.0574 49.6731 40.2163 50.2429 40.5181 50.6545C40.82 51.0661 41.2489 51.2718 41.789 51.2718C42.3292 51.2718 42.7422 51.0819 43.044 50.6862C43.3459 50.2904 43.4889 49.7364 43.5047 48.9924V48.5175V48.5492Z" fill="white"/>
<path d="M52.6712 49.3565H51.1778V51.9209H50.3359V45.6049H52.4329C53.1478 45.6049 53.7038 45.7632 54.085 46.0956C54.4663 46.4122 54.657 46.8871 54.657 47.5044C54.657 47.9002 54.5457 48.2484 54.3392 48.5333C54.1327 48.8183 53.8309 49.0399 53.4496 49.1823L54.9429 51.8575V51.905H54.0533L52.6712 49.3406V49.3565ZM51.1937 48.6758H52.4805C52.8936 48.6758 53.2272 48.565 53.4655 48.3592C53.7038 48.1376 53.8309 47.8527 53.8309 47.5044C53.8309 47.1087 53.7197 46.8079 53.4814 46.6021C53.2431 46.3964 52.9095 46.2855 52.4646 46.2855H51.1778V48.6916L51.1937 48.6758Z" fill="white"/>
<path d="M62.3301 48.7549L63.9822 45.589H64.9354L62.7431 49.5464V51.905H61.9011V49.5464L59.7088 45.589H60.662L62.3142 48.7549H62.3301Z" fill="white"/>
<path d="M69.4789 51.4935C69.4789 51.351 69.5266 51.2402 69.606 51.1452C69.6854 51.0502 69.8125 51.0027 69.9714 51.0027C70.1302 51.0027 70.2573 51.0502 70.3527 51.1452C70.4321 51.2402 70.4797 51.351 70.4797 51.4935C70.4797 51.6359 70.4321 51.7309 70.3527 51.8259C70.2732 51.9209 70.1461 51.9525 69.9714 51.9525C69.7966 51.9525 69.6854 51.905 69.606 51.8259C69.5266 51.7467 69.4789 51.6201 69.4789 51.4935Z" fill="white"/>
<path d="M86.1596 49.119H83.4907V51.905H82.6487V45.589H86.5726V46.2697H83.4748V48.4384H86.1437V49.119H86.1596Z" fill="white"/>
<path d="M97.2165 48.9449C97.2165 49.5623 97.1052 50.1005 96.8987 50.5595C96.6922 51.0186 96.3904 51.3668 96.0091 51.6201C95.6278 51.8575 95.183 51.9842 94.6746 51.9842C94.1663 51.9842 93.7373 51.8575 93.3402 51.6201C92.943 51.3827 92.6571 51.0344 92.4347 50.5753C92.2281 50.1163 92.1169 49.5939 92.1011 49.0082V48.5492C92.1011 47.9476 92.2123 47.4094 92.4188 46.9346C92.6253 46.4755 92.9271 46.1114 93.3243 45.8581C93.7056 45.6049 94.1504 45.4941 94.6588 45.4941C95.1671 45.4941 95.6119 45.6207 96.0091 45.8581C96.3904 46.0956 96.6922 46.4597 96.8987 46.9187C97.1052 47.3778 97.2165 47.916 97.2165 48.5333V48.9449ZM96.3904 48.5492C96.3904 47.8052 96.2315 47.2195 95.9297 46.8237C95.6278 46.428 95.1989 46.2222 94.6588 46.2222C94.1186 46.2222 93.7215 46.428 93.4037 46.8237C93.1019 47.2195 92.943 47.7735 92.943 48.4858V48.9449C92.943 49.6731 93.1019 50.2429 93.4037 50.6545C93.7056 51.0661 94.1345 51.2718 94.6746 51.2718C95.2148 51.2718 95.6278 51.0819 95.9297 50.6862C96.2315 50.2904 96.3745 49.7364 96.3904 48.9924V48.5175V48.5492Z" fill="white"/>
<path d="M107.892 49.8947C107.813 50.5595 107.558 51.0819 107.145 51.446C106.732 51.81 106.176 51.9842 105.477 51.9842C104.731 51.9842 104.127 51.7151 103.682 51.1769C103.237 50.6387 102.999 49.9263 102.999 49.0241V48.4225C102.999 47.8368 103.11 47.3145 103.317 46.8712C103.523 46.428 103.825 46.0798 104.206 45.8423C104.588 45.6049 105.033 45.4782 105.541 45.4782C106.208 45.4782 106.748 45.6682 107.161 46.0481C107.574 46.428 107.797 46.9346 107.876 47.5994H107.034C106.955 47.0928 106.812 46.7288 106.558 46.5072C106.319 46.2855 105.97 46.1747 105.541 46.1747C105.001 46.1747 104.588 46.3647 104.286 46.7604C103.984 47.1562 103.825 47.7102 103.825 48.4384V49.0557C103.825 49.7364 103.968 50.2904 104.254 50.6862C104.54 51.0977 104.937 51.2877 105.461 51.2877C105.922 51.2877 106.288 51.1769 106.526 50.9711C106.764 50.7653 106.939 50.4012 107.018 49.8788H107.86L107.892 49.8947Z" fill="white"/>
<path d="M118.266 49.8947C118.266 50.4962 118.075 50.9711 117.71 51.351C117.344 51.7309 116.836 51.9367 116.185 51.9842H115.962C115.263 51.9842 114.707 51.8101 114.31 51.4301C113.913 51.0502 113.691 50.5437 113.675 49.8947V45.589H114.501V49.863C114.501 50.3221 114.628 50.6703 114.882 50.9236C115.136 51.1769 115.502 51.3035 115.962 51.3035C116.423 51.3035 116.804 51.1769 117.043 50.9236C117.281 50.6703 117.424 50.3221 117.424 49.863V45.5732H118.266V49.8947Z" fill="white"/>
<path d="M126.209 49.0874C125.494 48.8816 124.97 48.6283 124.636 48.3276C124.303 48.0268 124.144 47.6627 124.144 47.2195C124.144 46.7288 124.35 46.3172 124.747 45.9848C125.145 45.6524 125.669 45.4941 126.304 45.4941C126.733 45.4941 127.13 45.5732 127.464 45.7473C127.798 45.9215 128.068 46.1431 128.258 46.4438C128.449 46.7446 128.544 47.0612 128.544 47.4094H127.702C127.702 47.0295 127.575 46.7288 127.337 46.5072C127.099 46.2855 126.749 46.1747 126.304 46.1747C125.891 46.1747 125.574 46.2697 125.335 46.4438C125.097 46.618 124.986 46.8712 124.986 47.2037C124.986 47.4569 125.097 47.6785 125.319 47.8527C125.542 48.0268 125.907 48.2009 126.447 48.3434C126.972 48.4858 127.385 48.66 127.686 48.8341C127.988 49.0082 128.211 49.214 128.354 49.4514C128.497 49.6889 128.576 49.9738 128.576 50.2904C128.576 50.797 128.37 51.2085 127.972 51.5251C127.575 51.8259 127.035 51.9842 126.368 51.9842C125.939 51.9842 125.526 51.905 125.145 51.7309C124.763 51.5568 124.477 51.3352 124.271 51.0502C124.064 50.7653 123.969 50.4329 123.969 50.0688H124.811C124.811 50.4487 124.954 50.7495 125.24 50.9711C125.526 51.1927 125.907 51.3035 126.368 51.3035C126.813 51.3035 127.146 51.2085 127.385 51.0344C127.623 50.8603 127.734 50.607 127.734 50.3062C127.734 50.0055 127.623 49.7522 127.4 49.5939C127.178 49.4198 126.781 49.2615 126.209 49.0874Z" fill="white"/>
<path d="M134.279 51.4935C134.279 51.351 134.327 51.2402 134.406 51.1452C134.486 51.0502 134.613 51.0027 134.772 51.0027C134.931 51.0027 135.058 51.0502 135.153 51.1452C135.232 51.2402 135.28 51.351 135.28 51.4935C135.28 51.6359 135.232 51.7309 135.153 51.8259C135.074 51.9209 134.947 51.9525 134.772 51.9525C134.597 51.9525 134.486 51.905 134.406 51.8259C134.327 51.7467 134.279 51.6201 134.279 51.4935Z" fill="white"/>
<path d="M148.291 49.4356V51.905H147.449V45.589H149.784C150.483 45.589 151.023 45.7632 151.421 46.1114C151.818 46.4597 152.008 46.9346 152.008 47.5202C152.008 48.1376 151.818 48.6125 151.437 48.9449C151.055 49.2773 150.499 49.4356 149.784 49.4356H148.291ZM148.291 48.7549H149.8C150.245 48.7549 150.595 48.6441 150.833 48.4384C151.071 48.2326 151.182 47.9318 151.182 47.5202C151.182 47.1403 151.071 46.8396 150.833 46.618C150.595 46.3964 150.261 46.2697 149.848 46.2697H148.291V48.7549Z" fill="white"/>
<path d="M161.429 48.9924H158.681V51.2402H161.874V51.9209H157.839V45.6049H161.826V46.2855H158.681V48.3276H161.429V49.0082V48.9924Z" fill="white"/>
<path d="M169.992 49.3565H168.498V51.9209H167.656V45.6049H169.753C170.468 45.6049 171.024 45.7632 171.406 46.0956C171.787 46.4122 171.978 46.8871 171.978 47.5044C171.978 47.9002 171.866 48.2484 171.66 48.5333C171.453 48.8183 171.151 49.0399 170.77 49.1823L172.264 51.8575V51.905H171.374L169.992 49.3406V49.3565ZM168.514 48.6758H169.801C170.214 48.6758 170.548 48.565 170.786 48.3592C171.024 48.1376 171.151 47.8527 171.151 47.5044C171.151 47.1087 171.04 46.8079 170.802 46.6021C170.564 46.3964 170.23 46.2855 169.785 46.2855H168.498V48.6916L168.514 48.6758Z" fill="white"/>
<path d="M181.414 49.119H178.745V51.905H177.903V45.589H181.827V46.2697H178.729V48.4384H181.398V49.119H181.414Z" fill="white"/>
<path d="M192.487 48.9449C192.487 49.5623 192.376 50.1005 192.169 50.5595C191.963 51.0186 191.661 51.3668 191.279 51.6201C190.898 51.8575 190.453 51.9842 189.945 51.9842C189.437 51.9842 189.008 51.8575 188.611 51.6201C188.213 51.3827 187.927 51.0344 187.705 50.5753C187.499 50.1163 187.387 49.5939 187.371 49.0082V48.5492C187.371 47.9476 187.483 47.4094 187.689 46.9346C187.896 46.4755 188.198 46.1114 188.595 45.8581C188.976 45.6049 189.421 45.4941 189.929 45.4941C190.437 45.4941 190.882 45.6207 191.279 45.8581C191.661 46.0956 191.963 46.4597 192.169 46.9187C192.376 47.3778 192.487 47.916 192.487 48.5333V48.9449ZM191.661 48.5492C191.661 47.8052 191.502 47.2195 191.2 46.8237C190.898 46.428 190.469 46.2222 189.929 46.2222C189.389 46.2222 188.992 46.428 188.674 46.8237C188.372 47.2195 188.213 47.7735 188.213 48.4858V48.9449C188.213 49.6731 188.372 50.2429 188.674 50.6545C188.976 51.0661 189.405 51.2718 189.945 51.2718C190.485 51.2718 190.898 51.0819 191.2 50.6862C191.502 50.2904 191.645 49.7364 191.661 48.9924V48.5175V48.5492Z" fill="white"/>
<path d="M200.827 49.3565H199.334V51.9209H198.492V45.6049H200.589C201.304 45.6049 201.86 45.7632 202.241 46.0956C202.622 46.4122 202.813 46.8871 202.813 47.5044C202.813 47.9002 202.702 48.2484 202.495 48.5333C202.289 48.8183 201.987 49.0399 201.606 49.1823L203.099 51.8575V51.905H202.209L200.827 49.3406V49.3565ZM199.334 48.6758H200.621C201.034 48.6758 201.367 48.565 201.606 48.3592C201.844 48.1376 201.971 47.8527 201.971 47.5044C201.971 47.1087 201.86 46.8079 201.621 46.6021C201.383 46.3964 201.05 46.2855 200.605 46.2855H199.318V48.6916L199.334 48.6758Z" fill="white"/>
<path d="M209.835 45.589L211.916 50.7495L213.997 45.589H215.077V51.905H214.235V49.4514L214.315 46.7921L212.234 51.905H211.598L209.517 46.7921L209.596 49.4356V51.8892H208.754V45.5732H209.835V45.589Z" fill="white"/>
<path d="M224.8 50.2588H222.147L221.543 51.905H220.685L223.1 45.589H223.831L226.261 51.905H225.403L224.8 50.2588ZM222.385 49.5781H224.545L223.465 46.618L222.385 49.5781Z" fill="white"/>
<path d="M236.746 51.905H235.904L232.711 47.0295V51.905H231.869V45.589H232.711L235.92 50.4804V45.589H236.746V51.905Z" fill="white"/>
<path d="M247.644 49.8947C247.565 50.5595 247.311 51.0819 246.898 51.446C246.484 51.81 245.928 51.9842 245.229 51.9842C244.483 51.9842 243.879 51.7151 243.434 51.1769C242.99 50.6387 242.751 49.9263 242.751 49.0241V48.4225C242.751 47.8368 242.862 47.3145 243.069 46.8712C243.275 46.428 243.577 46.0798 243.959 45.8423C244.34 45.6049 244.785 45.4782 245.293 45.4782C245.96 45.4782 246.5 45.6682 246.913 46.0481C247.326 46.428 247.549 46.9346 247.628 47.5994H246.786C246.707 47.0928 246.564 46.7288 246.31 46.5072C246.071 46.2855 245.722 46.1747 245.293 46.1747C244.753 46.1747 244.34 46.3647 244.038 46.7604C243.736 47.1562 243.577 47.7102 243.577 48.4384V49.0557C243.577 49.7364 243.72 50.2904 244.006 50.6862C244.292 51.0977 244.689 51.2877 245.214 51.2877C245.674 51.2877 246.04 51.1769 246.278 50.9711C246.516 50.7653 246.691 50.4012 246.77 49.8788H247.612L247.644 49.8947Z" fill="white"/>
<path d="M257.128 48.9924H254.38V51.2402H257.573V51.9209H253.538V45.6049H257.526V46.2855H254.38V48.3276H257.128V49.0082V48.9924Z" fill="white"/>
<path d="M263.26 51.4935C263.26 51.351 263.308 51.2402 263.388 51.1452C263.467 51.0502 263.594 51.0027 263.753 51.0027C263.912 51.0027 264.039 51.0502 264.134 51.1452C264.214 51.2402 264.261 51.351 264.261 51.4935C264.261 51.6359 264.214 51.7309 264.134 51.8259C264.055 51.9209 263.928 51.9525 263.753 51.9525C263.578 51.9525 263.467 51.905 263.388 51.8259C263.308 51.7467 263.26 51.6201 263.26 51.4935Z" fill="white"/>
<path d="M5.61583 45.589L7.69694 50.7495L9.77805 45.589H10.8583V51.905H10.0163V49.4514L10.0958 46.7921L8.01467 51.905H7.37921L5.2981 46.7921L5.37753 49.4356V51.8892H4.53556V45.5732H5.61583V45.589Z" fill="white"/>
<path d="M20.6761 48.9924H17.9277V51.2402H21.1209V51.9209H17.0858V45.6049H21.0732V46.2855H17.9277V48.3276H20.6761V49.0082V48.9924Z" fill="white"/>
<path d="M27.9997 45.589L30.0808 50.7495L32.1619 45.589H33.2422V51.905H32.4002V49.4514L32.4796 46.7921L30.3985 51.905H29.7631L27.682 46.7921L27.7614 49.4356V51.8892H26.9194V45.5732H27.9997V45.589Z" fill="white"/>
<path d="M44.3467 48.9449C44.3467 49.5623 44.2355 50.1005 44.029 50.5595C43.8225 51.0186 43.5206 51.3668 43.1394 51.6201C42.7581 51.8575 42.3133 51.9842 41.8049 51.9842C41.2965 51.9842 40.8676 51.8575 40.4705 51.6201C40.0733 51.3827 39.7873 51.0344 39.5649 50.5753C39.3584 50.1163 39.2472 49.5939 39.2313 49.0082V48.5492C39.2313 47.9476 39.3425 47.4094 39.549 46.9346C39.7556 46.4755 40.0574 46.1114 40.4546 45.8581C40.8358 45.6049 41.2807 45.4941 41.789 45.4941C42.2974 45.4941 42.7422 45.6207 43.1394 45.8581C43.5206 46.0956 43.8225 46.4597 44.029 46.9187C44.2355 47.3778 44.3467 47.916 44.3467 48.5333V48.9449ZM43.5047 48.5492C43.5047 47.8052 43.3459 47.2195 43.044 46.8237C42.7422 46.428 42.3133 46.2222 41.7731 46.2222C41.233 46.2222 40.8358 46.428 40.5181 46.8237C40.2163 47.2195 40.0574 47.7735 40.0574 48.4858V48.9449C40.0574 49.6731 40.2163 50.2429 40.5181 50.6545C40.82 51.0661 41.2489 51.2718 41.789 51.2718C42.3292 51.2718 42.7422 51.0819 43.044 50.6862C43.3459 50.2904 43.4889 49.7364 43.5047 48.9924V48.5175V48.5492Z" fill="white"/>
<path d="M52.6712 49.3565H51.1778V51.9209H50.3359V45.6049H52.4329C53.1478 45.6049 53.7038 45.7632 54.085 46.0956C54.4663 46.4122 54.657 46.8871 54.657 47.5044C54.657 47.9002 54.5457 48.2484 54.3392 48.5333C54.1327 48.8183 53.8309 49.0399 53.4496 49.1823L54.9429 51.8575V51.905H54.0533L52.6712 49.3406V49.3565ZM51.1937 48.6758H52.4805C52.8936 48.6758 53.2272 48.565 53.4655 48.3592C53.7038 48.1376 53.8309 47.8527 53.8309 47.5044C53.8309 47.1087 53.7197 46.8079 53.4814 46.6021C53.2431 46.3964 52.9095 46.2855 52.4646 46.2855H51.1778V48.6916L51.1937 48.6758Z" fill="white"/>
<path d="M62.3301 48.7549L63.9822 45.589H64.9354L62.7431 49.5464V51.905H61.9011V49.5464L59.7088 45.589H60.662L62.3142 48.7549H62.3301Z" fill="white"/>
<path d="M69.4789 51.4935C69.4789 51.351 69.5266 51.2402 69.606 51.1452C69.6854 51.0502 69.8125 51.0027 69.9714 51.0027C70.1302 51.0027 70.2573 51.0502 70.3527 51.1452C70.4321 51.2402 70.4797 51.351 70.4797 51.4935C70.4797 51.6359 70.4321 51.7309 70.3527 51.8259C70.2732 51.9209 70.1461 51.9525 69.9714 51.9525C69.7966 51.9525 69.6854 51.905 69.606 51.8259C69.5266 51.7467 69.4789 51.6201 69.4789 51.4935Z" fill="white"/>
<path d="M86.1596 49.119H83.4907V51.905H82.6487V45.589H86.5726V46.2697H83.4748V48.4384H86.1437V49.119H86.1596Z" fill="white"/>
<path d="M97.2165 48.9449C97.2165 49.5623 97.1052 50.1005 96.8987 50.5595C96.6922 51.0186 96.3904 51.3668 96.0091 51.6201C95.6278 51.8575 95.183 51.9842 94.6746 51.9842C94.1663 51.9842 93.7373 51.8575 93.3402 51.6201C92.943 51.3827 92.6571 51.0344 92.4347 50.5753C92.2281 50.1163 92.1169 49.5939 92.1011 49.0082V48.5492C92.1011 47.9476 92.2123 47.4094 92.4188 46.9346C92.6253 46.4755 92.9271 46.1114 93.3243 45.8581C93.7056 45.6049 94.1504 45.4941 94.6588 45.4941C95.1671 45.4941 95.6119 45.6207 96.0091 45.8581C96.3904 46.0956 96.6922 46.4597 96.8987 46.9187C97.1052 47.3778 97.2165 47.916 97.2165 48.5333V48.9449ZM96.3904 48.5492C96.3904 47.8052 96.2315 47.2195 95.9297 46.8237C95.6278 46.428 95.1989 46.2222 94.6588 46.2222C94.1186 46.2222 93.7215 46.428 93.4037 46.8237C93.1019 47.2195 92.943 47.7735 92.943 48.4858V48.9449C92.943 49.6731 93.1019 50.2429 93.4037 50.6545C93.7056 51.0661 94.1345 51.2718 94.6746 51.2718C95.2148 51.2718 95.6278 51.0819 95.9297 50.6862C96.2315 50.2904 96.3745 49.7364 96.3904 48.9924V48.5175V48.5492Z" fill="white"/>
<path d="M107.892 49.8947C107.813 50.5595 107.558 51.0819 107.145 51.446C106.732 51.81 106.176 51.9842 105.477 51.9842C104.731 51.9842 104.127 51.7151 103.682 51.1769C103.237 50.6387 102.999 49.9263 102.999 49.0241V48.4225C102.999 47.8368 103.11 47.3145 103.317 46.8712C103.523 46.428 103.825 46.0798 104.206 45.8423C104.588 45.6049 105.033 45.4782 105.541 45.4782C106.208 45.4782 106.748 45.6682 107.161 46.0481C107.574 46.428 107.797 46.9346 107.876 47.5994H107.034C106.955 47.0928 106.812 46.7288 106.558 46.5072C106.319 46.2855 105.97 46.1747 105.541 46.1747C105.001 46.1747 104.588 46.3647 104.286 46.7604C103.984 47.1562 103.825 47.7102 103.825 48.4384V49.0557C103.825 49.7364 103.968 50.2904 104.254 50.6862C104.54 51.0977 104.937 51.2877 105.461 51.2877C105.922 51.2877 106.288 51.1769 106.526 50.9711C106.764 50.7653 106.939 50.4012 107.018 49.8788H107.86L107.892 49.8947Z" fill="white"/>
<path d="M118.266 49.8947C118.266 50.4962 118.075 50.9711 117.71 51.351C117.344 51.7309 116.836 51.9367 116.185 51.9842H115.962C115.263 51.9842 114.707 51.8101 114.31 51.4301C113.913 51.0502 113.691 50.5437 113.675 49.8947V45.589H114.501V49.863C114.501 50.3221 114.628 50.6703 114.882 50.9236C115.136 51.1769 115.502 51.3035 115.962 51.3035C116.423 51.3035 116.804 51.1769 117.043 50.9236C117.281 50.6703 117.424 50.3221 117.424 49.863V45.5732H118.266V49.8947Z" fill="white"/>
<path d="M126.209 49.0874C125.494 48.8816 124.97 48.6283 124.636 48.3276C124.303 48.0268 124.144 47.6627 124.144 47.2195C124.144 46.7288 124.35 46.3172 124.747 45.9848C125.145 45.6524 125.669 45.4941 126.304 45.4941C126.733 45.4941 127.13 45.5732 127.464 45.7473C127.798 45.9215 128.068 46.1431 128.258 46.4438C128.449 46.7446 128.544 47.0612 128.544 47.4094H127.702C127.702 47.0295 127.575 46.7288 127.337 46.5072C127.099 46.2855 126.749 46.1747 126.304 46.1747C125.891 46.1747 125.574 46.2697 125.335 46.4438C125.097 46.618 124.986 46.8712 124.986 47.2037C124.986 47.4569 125.097 47.6785 125.319 47.8527C125.542 48.0268 125.907 48.2009 126.447 48.3434C126.972 48.4858 127.385 48.66 127.686 48.8341C127.988 49.0082 128.211 49.214 128.354 49.4514C128.497 49.6889 128.576 49.9738 128.576 50.2904C128.576 50.797 128.37 51.2085 127.972 51.5251C127.575 51.8259 127.035 51.9842 126.368 51.9842C125.939 51.9842 125.526 51.905 125.145 51.7309C124.763 51.5568 124.477 51.3352 124.271 51.0502C124.064 50.7653 123.969 50.4329 123.969 50.0688H124.811C124.811 50.4487 124.954 50.7495 125.24 50.9711C125.526 51.1927 125.907 51.3035 126.368 51.3035C126.813 51.3035 127.146 51.2085 127.385 51.0344C127.623 50.8603 127.734 50.607 127.734 50.3062C127.734 50.0055 127.623 49.7522 127.4 49.5939C127.178 49.4198 126.781 49.2615 126.209 49.0874Z" fill="white"/>
<path d="M134.279 51.4935C134.279 51.351 134.327 51.2402 134.406 51.1452C134.486 51.0502 134.613 51.0027 134.772 51.0027C134.931 51.0027 135.058 51.0502 135.153 51.1452C135.232 51.2402 135.28 51.351 135.28 51.4935C135.28 51.6359 135.232 51.7309 135.153 51.8259C135.074 51.9209 134.947 51.9525 134.772 51.9525C134.597 51.9525 134.486 51.905 134.406 51.8259C134.327 51.7467 134.279 51.6201 134.279 51.4935Z" fill="white"/>
<path d="M148.291 49.4356V51.905H147.449V45.589H149.784C150.483 45.589 151.023 45.7632 151.421 46.1114C151.818 46.4597 152.008 46.9346 152.008 47.5202C152.008 48.1376 151.818 48.6125 151.437 48.9449C151.055 49.2773 150.499 49.4356 149.784 49.4356H148.291ZM148.291 48.7549H149.8C150.245 48.7549 150.595 48.6441 150.833 48.4384C151.071 48.2326 151.182 47.9318 151.182 47.5202C151.182 47.1403 151.071 46.8396 150.833 46.618C150.595 46.3964 150.261 46.2697 149.848 46.2697H148.291V48.7549Z" fill="white"/>
<path d="M161.429 48.9924H158.681V51.2402H161.874V51.9209H157.839V45.6049H161.826V46.2855H158.681V48.3276H161.429V49.0082V48.9924Z" fill="white"/>
<path d="M169.992 49.3565H168.498V51.9209H167.656V45.6049H169.753C170.468 45.6049 171.024 45.7632 171.406 46.0956C171.787 46.4122 171.978 46.8871 171.978 47.5044C171.978 47.9002 171.866 48.2484 171.66 48.5333C171.453 48.8183 171.151 49.0399 170.77 49.1823L172.264 51.8575V51.905H171.374L169.992 49.3406V49.3565ZM168.514 48.6758H169.801C170.214 48.6758 170.548 48.565 170.786 48.3592C171.024 48.1376 171.151 47.8527 171.151 47.5044C171.151 47.1087 171.04 46.8079 170.802 46.6021C170.564 46.3964 170.23 46.2855 169.785 46.2855H168.498V48.6916L168.514 48.6758Z" fill="white"/>
<path d="M181.414 49.119H178.745V51.905H177.903V45.589H181.827V46.2697H178.729V48.4384H181.398V49.119H181.414Z" fill="white"/>
<path d="M192.487 48.9449C192.487 49.5623 192.376 50.1005 192.169 50.5595C191.963 51.0186 191.661 51.3668 191.279 51.6201C190.898 51.8575 190.453 51.9842 189.945 51.9842C189.437 51.9842 189.008 51.8575 188.611 51.6201C188.213 51.3827 187.927 51.0344 187.705 50.5753C187.499 50.1163 187.387 49.5939 187.371 49.0082V48.5492C187.371 47.9476 187.483 47.4094 187.689 46.9346C187.896 46.4755 188.198 46.1114 188.595 45.8581C188.976 45.6049 189.421 45.4941 189.929 45.4941C190.437 45.4941 190.882 45.6207 191.279 45.8581C191.661 46.0956 191.963 46.4597 192.169 46.9187C192.376 47.3778 192.487 47.916 192.487 48.5333V48.9449ZM191.661 48.5492C191.661 47.8052 191.502 47.2195 191.2 46.8237C190.898 46.428 190.469 46.2222 189.929 46.2222C189.389 46.2222 188.992 46.428 188.674 46.8237C188.372 47.2195 188.213 47.7735 188.213 48.4858V48.9449C188.213 49.6731 188.372 50.2429 188.674 50.6545C188.976 51.0661 189.405 51.2718 189.945 51.2718C190.485 51.2718 190.898 51.0819 191.2 50.6862C191.502 50.2904 191.645 49.7364 191.661 48.9924V48.5175V48.5492Z" fill="white"/>
<path d="M200.827 49.3565H199.334V51.9209H198.492V45.6049H200.589C201.304 45.6049 201.86 45.7632 202.241 46.0956C202.622 46.4122 202.813 46.8871 202.813 47.5044C202.813 47.9002 202.702 48.2484 202.495 48.5333C202.289 48.8183 201.987 49.0399 201.606 49.1823L203.099 51.8575V51.905H202.209L200.827 49.3406V49.3565ZM199.334 48.6758H200.621C201.034 48.6758 201.367 48.565 201.606 48.3592C201.844 48.1376 201.971 47.8527 201.971 47.5044C201.971 47.1087 201.86 46.8079 201.621 46.6021C201.383 46.3964 201.05 46.2855 200.605 46.2855H199.318V48.6916L199.334 48.6758Z" fill="white"/>
<path d="M209.835 45.589L211.916 50.7495L213.997 45.589H215.077V51.905H214.235V49.4514L214.315 46.7921L212.234 51.905H211.598L209.517 46.7921L209.596 49.4356V51.8892H208.754V45.5732H209.835V45.589Z" fill="white"/>
<path d="M224.8 50.2588H222.147L221.543 51.905H220.685L223.1 45.589H223.831L226.261 51.905H225.403L224.8 50.2588ZM222.385 49.5781H224.545L223.465 46.618L222.385 49.5781Z" fill="white"/>
<path d="M236.746 51.905H235.904L232.711 47.0295V51.905H231.869V45.589H232.711L235.92 50.4804V45.589H236.746V51.905Z" fill="white"/>
<path d="M247.644 49.8947C247.565 50.5595 247.311 51.0819 246.898 51.446C246.484 51.81 245.928 51.9842 245.229 51.9842C244.483 51.9842 243.879 51.7151 243.434 51.1769C242.99 50.6387 242.751 49.9263 242.751 49.0241V48.4225C242.751 47.8368 242.862 47.3145 243.069 46.8712C243.275 46.428 243.577 46.0798 243.959 45.8423C244.34 45.6049 244.785 45.4782 245.293 45.4782C245.96 45.4782 246.5 45.6682 246.913 46.0481C247.326 46.428 247.549 46.9346 247.628 47.5994H246.786C246.707 47.0928 246.564 46.7288 246.31 46.5072C246.071 46.2855 245.722 46.1747 245.293 46.1747C244.753 46.1747 244.34 46.3647 244.038 46.7604C243.736 47.1562 243.577 47.7102 243.577 48.4384V49.0557C243.577 49.7364 243.72 50.2904 244.006 50.6862C244.292 51.0977 244.689 51.2877 245.214 51.2877C245.674 51.2877 246.04 51.1769 246.278 50.9711C246.516 50.7653 246.691 50.4012 246.77 49.8788H247.612L247.644 49.8947Z" fill="white"/>
<path d="M257.128 48.9924H254.38V51.2402H257.573V51.9209H253.538V45.6049H257.526V46.2855H254.38V48.3276H257.128V49.0082V48.9924Z" fill="white"/>
<path d="M263.26 51.4935C263.26 51.351 263.308 51.2402 263.388 51.1452C263.467 51.0502 263.594 51.0027 263.753 51.0027C263.912 51.0027 264.039 51.0502 264.134 51.1452C264.214 51.2402 264.261 51.351 264.261 51.4935C264.261 51.6359 264.214 51.7309 264.134 51.8259C264.055 51.9209 263.928 51.9525 263.753 51.9525C263.578 51.9525 263.467 51.905 263.388 51.8259C263.308 51.7467 263.26 51.6201 263.26 51.4935Z" fill="white"/>
<path d="M22.7095 22.4621L26.3316 3.38752H31.8601L25.8868 30.2027H20.3107L15.9261 12.2679L11.5414 30.2027H5.96533L-0.00793457 3.38752H5.52051L9.15848 22.4304L13.5908 3.38752H18.2772L22.6936 22.4621H22.7095Z" fill="white"/>
<path d="M41.8049 30.5668C38.8659 30.5668 36.483 29.6645 34.6402 27.8758C32.7974 26.0871 31.8759 23.6968 31.8759 20.705V20.1826C31.8759 18.1881 32.2572 16.3994 33.0356 14.8164C33.8141 13.2335 34.9102 12.0304 36.34 11.1756C37.7698 10.3209 39.3902 9.89346 41.2171 9.89346C43.9496 9.89346 46.1101 10.7483 47.6829 12.4737C49.2556 14.1991 50.034 16.6368 50.034 19.7869V21.9556H37.2932C37.4679 23.2536 37.9922 24.2983 38.85 25.0898C39.7238 25.8813 40.82 26.2612 42.1544 26.2612C44.2037 26.2612 45.8242 25.5172 46.9839 24.0292L49.6051 26.9577C48.8108 28.0816 47.7146 28.968 46.3484 29.6012C44.9822 30.2344 43.473 30.551 41.8049 30.551V30.5668ZM41.2012 14.1991C40.1368 14.1991 39.279 14.5632 38.6276 15.2755C37.9604 15.9878 37.5474 17.0167 37.3567 18.3464H44.7915V17.919C44.7598 16.7318 44.442 15.8137 43.8384 15.1647C43.2188 14.5157 42.345 14.1991 41.2171 14.1991H41.2012Z" fill="white"/>
<path d="M69.9396 20.4201C69.9396 23.6177 69.2565 26.1029 67.8903 27.8916C66.5241 29.6804 64.6177 30.5668 62.1553 30.5668C59.9948 30.5668 58.2632 29.7437 56.9605 28.0816L56.7222 30.2027H51.9245V1.91537H57.2623V12.0621C58.5014 10.6216 60.106 9.90929 62.1235 9.90929C64.57 9.90929 66.4764 10.7957 67.8585 12.5845C69.2406 14.3732 69.9396 16.8901 69.9396 20.1193V20.4201ZM64.6018 20.0244C64.6018 18.014 64.2841 16.5419 63.6486 15.6079C63.0132 14.674 62.06 14.2149 60.7891 14.2149C59.0892 14.2149 57.9137 14.9114 57.2782 16.2886V24.1559C57.9295 25.5489 59.121 26.2612 60.8209 26.2612C62.5207 26.2612 63.6804 25.4064 64.2205 23.7126C64.4747 22.9053 64.6018 21.6706 64.6018 20.0085V20.0244Z" fill="white"/>
<path d="M81.2983 30.5668C78.3594 30.5668 75.9764 29.6645 74.1336 27.8758C72.2908 26.0871 71.3694 23.6968 71.3694 20.705V20.1826C71.3694 18.1881 71.7507 16.3994 72.5291 14.8164C73.3075 13.2335 74.4037 12.0304 75.8335 11.1756C77.2632 10.3209 78.8836 9.89346 80.7105 9.89346C83.443 9.89346 85.6035 10.7483 87.1763 12.4737C88.749 14.1991 89.5275 16.6368 89.5275 19.7869V21.9556H76.7866C76.9614 23.2536 77.4856 24.2983 78.3435 25.0898C79.2172 25.8813 80.3134 26.2612 81.6478 26.2612C83.6972 26.2612 85.3176 25.5172 86.4773 24.0292L89.0985 26.9577C88.3042 28.0816 87.2081 28.968 85.8418 29.6012C84.4756 30.2344 82.9664 30.551 81.2983 30.551V30.5668ZM80.6947 14.1991C79.6303 14.1991 78.7724 14.5632 78.1211 15.2755C77.4538 15.9878 77.0408 17.0167 76.8502 18.3464H84.285V17.919C84.2532 16.7318 83.9355 15.8137 83.3318 15.1647C82.7122 14.5157 81.8385 14.1991 80.7105 14.1991H80.6947Z" fill="white"/>
<path d="M102.65 15.2597C101.919 15.1647 101.283 15.1172 100.727 15.1172C98.7098 15.1172 97.3753 15.7979 96.7558 17.1592V30.2027H91.4179V10.2734H96.4698L96.6128 12.6478C97.6772 10.8116 99.1705 9.90929 101.061 9.90929C101.649 9.90929 102.205 9.98843 102.729 10.1467L102.65 15.2597Z" fill="white"/>
<path d="M104.445 30.2027V3.38752H113.865C117.122 3.38752 119.6 4.00487 121.3 5.2554C123 6.50594 123.826 8.32633 123.826 10.7324C123.826 12.0463 123.492 13.2018 122.809 14.1991C122.126 15.1963 121.189 15.9403 119.982 16.3994C121.364 16.7476 122.444 17.4441 123.238 18.4731C124.033 19.5178 124.43 20.8 124.43 22.3038C124.43 24.884 123.604 26.8311 121.951 28.1607C120.299 29.4904 117.948 30.1553 114.898 30.1869H104.445V30.2027ZM109.989 14.6107H114.088C116.884 14.5632 118.282 13.4551 118.282 11.2706C118.282 10.0518 117.932 9.18113 117.217 8.64292C116.502 8.10472 115.39 7.83562 113.865 7.83562H109.989V14.6107ZM109.989 18.5205V25.7546H114.739C116.042 25.7546 117.058 25.4381 117.805 24.8207C118.536 24.2034 118.901 23.3486 118.901 22.2563C118.901 19.8027 117.63 18.5522 115.073 18.5205H109.989Z" fill="white"/>
<path d="M138.346 15.2597C137.615 15.1647 136.98 15.1172 136.424 15.1172C134.406 15.1172 133.072 15.7979 132.452 17.1592V30.2027H127.115V10.2734H132.166L132.309 12.6478C133.374 10.8116 134.867 9.90929 136.758 9.90929C137.345 9.90929 137.901 9.98843 138.426 10.1467L138.346 15.2597Z" fill="white"/>
<path d="M150.817 30.2027C150.563 29.7279 150.388 29.1263 150.277 28.414C148.99 29.8545 147.306 30.5668 145.225 30.5668C143.271 30.5668 141.651 29.997 140.364 28.8731C139.077 27.7492 138.426 26.3245 138.426 24.5991C138.426 22.4938 139.204 20.8633 140.777 19.7394C142.35 18.6155 144.621 18.0457 147.592 18.0298H150.054V16.8901C150.054 15.972 149.816 15.228 149.34 14.674C148.863 14.1199 148.116 13.8508 147.1 13.8508C146.194 13.8508 145.495 14.0725 144.987 14.4998C144.478 14.9272 144.224 15.5129 144.224 16.2728H138.886C138.886 15.1172 139.236 14.0566 139.951 13.0752C140.666 12.0938 141.682 11.3181 142.985 10.7641C144.288 10.21 145.749 9.92511 147.386 9.92511C149.848 9.92511 151.802 10.5425 153.248 11.7772C154.693 13.0119 155.424 14.7531 155.424 16.9851V25.628C155.424 27.5117 155.694 28.9522 156.218 29.9178V30.2344H150.817V30.2027ZM146.401 26.4986C147.195 26.4986 147.91 26.3245 148.577 25.9763C149.244 25.628 149.737 25.1531 150.054 24.5674V21.1483H148.053C145.384 21.1483 143.954 22.0664 143.779 23.9026V24.2192C143.763 24.884 144.002 25.4222 144.462 25.8654C144.923 26.2928 145.574 26.5145 146.385 26.5145L146.401 26.4986Z" fill="white"/>
<path d="M158.347 5.11294C158.347 4.32146 158.617 3.65662 159.157 3.15008C159.697 2.64353 160.428 2.37443 161.35 2.37443C162.271 2.37443 162.986 2.6277 163.526 3.15008C164.066 3.67245 164.336 4.32146 164.336 5.11294C164.336 5.90441 164.066 6.58508 163.51 7.10746C162.954 7.62983 162.239 7.88311 161.334 7.88311C160.428 7.88311 159.713 7.62983 159.157 7.10746C158.601 6.58508 158.331 5.93607 158.331 5.11294H158.347ZM164.019 30.2027H158.665V10.2734H164.019V30.2027Z" fill="white"/>
<path d="M172.2 10.2734L172.359 12.5686C173.789 10.7957 175.711 9.89346 178.11 9.89346C180.223 9.89346 181.811 10.5108 182.844 11.7613C183.876 12.996 184.401 14.8481 184.432 17.3175V30.1869H179.095V17.4441C179.095 16.3202 178.84 15.4971 178.348 14.9906C177.855 14.484 177.029 14.2307 175.886 14.2307C174.376 14.2307 173.248 14.8639 172.502 16.1461V30.2027H167.164V10.2734H172.2Z" fill="white"/>
<path d="M185.735 3.89406C185.735 3.19757 185.894 2.54855 186.228 1.94703C186.545 1.34551 187.006 0.870624 187.578 0.522374C188.15 0.174125 188.769 0 189.453 0C190.136 0 190.739 0.174125 191.327 0.522374C191.899 0.870624 192.36 1.34551 192.677 1.94703C193.011 2.54855 193.17 3.19757 193.17 3.89406C193.17 4.59056 193.011 5.2554 192.677 5.85693C192.344 6.45845 191.899 6.93333 191.327 7.28158C190.755 7.62983 190.136 7.80396 189.468 7.80396C188.801 7.80396 188.166 7.62983 187.594 7.28158C187.022 6.93333 186.577 6.45845 186.243 5.85693C185.91 5.2554 185.751 4.60639 185.751 3.89406H185.735ZM192.519 3.89406C192.519 3.3242 192.392 2.786 192.121 2.27945C191.867 1.78874 191.486 1.393 191.009 1.09224C190.533 0.791476 190.009 0.649011 189.437 0.649011C188.865 0.649011 188.372 0.791476 187.896 1.07641C187.419 1.36134 187.054 1.75708 186.768 2.24779C186.498 2.75434 186.355 3.29254 186.355 3.87823C186.355 4.46393 186.482 5.01796 186.752 5.50868C187.022 5.99939 187.387 6.41096 187.864 6.69589C188.34 6.98082 188.849 7.13912 189.421 7.13912C189.993 7.13912 190.501 6.99665 190.978 6.69589C191.454 6.39513 191.835 5.99939 192.09 5.50868C192.36 5.00213 192.487 4.46393 192.487 3.89406H192.519ZM188.69 4.2898V6.04688H187.896V1.61461H189.357C189.881 1.61461 190.295 1.72542 190.596 1.97869C190.898 2.21613 191.057 2.54855 191.057 2.99178C191.057 3.38752 190.866 3.68828 190.469 3.89406C190.676 4.00487 190.835 4.14734 190.914 4.33729C190.994 4.52725 191.041 4.76469 191.041 5.04962C191.041 5.33455 191.041 5.54033 191.057 5.65114C191.057 5.76195 191.089 5.87276 191.121 5.9519V6.03105H190.31C190.263 5.92024 190.247 5.57199 190.247 5.01796C190.247 4.74886 190.183 4.5589 190.072 4.4481C189.961 4.33729 189.77 4.27397 189.5 4.27397H188.674L188.69 4.2898ZM188.69 3.5933H189.405C189.659 3.5933 189.881 3.54581 190.04 3.41918C190.199 3.30837 190.295 3.16591 190.295 2.97595C190.295 2.73851 190.231 2.56438 190.104 2.45358C189.977 2.3586 189.754 2.29528 189.437 2.29528H188.706V3.57747L188.69 3.5933Z" fill="white"/>
<path d="M221.336 4.2898H221.066C217.698 4.2898 215.045 5.27123 213.107 7.24992C211.169 9.22862 210.105 11.9671 209.898 15.4971C210.677 14.4365 211.662 13.5976 212.853 13.0119C214.06 12.4262 215.395 12.1412 216.888 12.1412C219.367 12.1412 221.336 12.996 222.798 14.6898C224.26 16.3994 224.99 18.6155 224.99 21.3699C224.99 23.1903 224.641 24.8365 223.958 26.3087C223.275 27.7808 222.29 28.9206 221.019 29.7279C219.748 30.551 218.286 30.9467 216.65 30.9467C213.949 30.9467 211.757 29.9653 210.073 28.0183C208.389 26.0712 207.531 23.5543 207.531 20.4676V18.1565C207.531 13.1227 208.675 9.22862 210.979 6.47428C213.282 3.71994 216.539 2.31111 220.749 2.26362H221.336V4.2898ZM216.507 14.1358C215.03 14.1358 213.663 14.5632 212.392 15.4338C211.122 16.3044 210.28 17.3967 209.851 18.7422V20.705C209.851 23.1428 210.486 25.1373 211.741 26.6728C212.996 28.2082 214.632 28.9839 216.65 28.9839C218.461 28.9839 219.923 28.2715 221.035 26.8469C222.147 25.4222 222.703 23.6177 222.703 21.449C222.703 19.2804 222.147 17.46 221.035 16.1303C219.923 14.8006 218.413 14.1199 216.507 14.1199V14.1358Z" fill="white"/>
<path d="M245.023 3.81492L232.981 30.5668H230.566L242.529 4.4481H226.499V2.48524H245.023V3.81492Z" fill="white"/>
<path d="M264.261 9.71933C264.261 11.1756 263.832 12.4737 262.99 13.6292C262.148 14.7848 261.02 15.6237 259.622 16.1619C261.243 16.716 262.546 17.6024 263.531 18.8371C264.515 20.0718 265.008 21.4965 265.008 23.1269C265.008 25.533 264.182 27.4326 262.546 28.8414C260.909 30.2502 258.733 30.9467 256.048 30.9467C253.363 30.9467 251.139 30.2502 249.519 28.8414C247.882 27.4326 247.072 25.533 247.072 23.1111C247.072 21.5123 247.549 20.0877 248.486 18.853C249.423 17.6024 250.726 16.7002 252.362 16.1461C250.964 15.6079 249.852 14.7531 249.026 13.6134C248.2 12.4737 247.787 11.1598 247.787 9.7035C247.787 7.37656 248.534 5.52451 250.043 4.14734C251.552 2.77017 253.538 2.0895 256.016 2.0895C258.495 2.0895 260.496 2.786 262.005 4.179C263.515 5.57199 264.277 7.40822 264.277 9.71933H264.261ZM262.673 23.1428C262.673 21.4015 262.053 19.961 260.798 18.8371C259.543 17.7132 257.939 17.1434 256 17.1434C254.062 17.1434 252.458 17.6974 251.219 18.8055C249.979 19.9135 249.36 21.354 249.36 23.1428C249.36 24.9315 249.964 26.3562 251.155 27.4167C252.362 28.4773 253.983 29.0155 256.032 29.0155C258.082 29.0155 259.638 28.4932 260.846 27.4326C262.053 26.372 262.673 24.9473 262.673 23.1428ZM261.926 9.7035C261.926 8.08889 261.37 6.75921 260.258 5.6828C259.146 4.60639 257.716 4.06819 255.985 4.06819C254.253 4.06819 252.807 4.59056 251.711 5.61948C250.615 6.6484 250.075 8.00974 250.075 9.7035C250.075 11.3973 250.615 12.6795 251.711 13.6767C252.807 14.674 254.237 15.1805 256 15.1805C257.764 15.1805 259.162 14.674 260.274 13.6609C261.37 12.6478 261.926 11.3339 261.926 9.7035Z" fill="white"/>
</svg>
