<svg width="30" height="29" viewBox="0 0 30 29" fill="none" xmlns="http://www.w3.org/2000/svg">
    <path d="M28.335 14.43c0 5.057-2.746 9.46-6.836 11.815a13.547 13.547 0 0 1-6.784 1.805c-2.468 0-4.787-.663-6.784-1.805-4.099-2.354-6.846-6.767-6.846-11.816C1.085 6.895 7.181.8 14.715.8c7.534 0 13.63 6.104 13.63 13.63h-.01z" stroke="#fff" stroke-width="1.41" stroke-miterlimit="10"/>
    <path d="M14.706 12.17a3.636 3.636 0 1 0 0-7.272 3.636 3.636 0 0 0 0 7.273zM21.499 20.307v5.938a13.546 13.546 0 0 1-6.784 1.805c-2.468 0-4.787-.663-6.784-1.805v-5.938a5.874 5.874 0 0 1 5.877-5.878h1.814a5.882 5.882 0 0 1 5.886 5.878h-.009z" stroke="#fff" stroke-width="1.41" stroke-miterlimit="10"/>
</svg>
